#!OML:ASF F:\VICON\USERDATA\INSTALL\rory3\rory3.ASF
:FULLY-SPECIFIED
:DEGREES
154
root 1.0085029879287624 18.156648993691686 47.37039645249153 3.352030225208341 -3.5290334006607424 -0.7613769669830095
lfemur 7.554545469546174 -2.1141883420461562 -27.082753851975976
ltibia 14.535556816455376
lfoot 15.60812233551336 -11.692527474970396
ltoes -23.299767289736664
rfemur -45.79150295042089 -3.692453554352244 23.839475316898145
rtibia 109.21439619718616
rfoot 9.86749619546274 -6.714571301732772
rtoes 8.82689090068788
lowerback nan -1.9583332453432876 -0.9097213097854686
upperback -0.8040523363722261 -1.0351821543702677 0.5697564699940019
thorax -7.960673261718922 -0.9719670614896266 3.2375170835728166
lowerneck -19.583955049599844 -3.1316449736570466 -2.2446098965144614
upperneck 6.852220697577892 -4.560153320833496 6.465913824740871
head 6.830393785064764 -1.7345225345483808 1.3319653077907265
lclavicle 1.1441332928393115e-14 9.536311949925443e-15
lhumerus -37.63073774148984 -5.7470632350993185 83.31066260421463
lradius 133.8729653855467
lwrist 35.80248554079005
lhand -27.465529936585853 -3.6729351083081463
lfingers nan
lthumb -0.5677853508493496 26.42852734889588
rclavicle 1.2169318731114046e-14 1.2399295521843025e-14
rhumerus -66.41972069118485 5.950540388445708 -94.18290423119001
rradius 99.94358683141206
rwrist -23.064670740898677
rhand -18.041293694716305 nan
rfingers nan
rthumb 8.277355999874098 13.097147317789137
155
root 1.0101745619291203 18.221891056276093 47.66867557626733 3.636809780747896 -4.104675566041837 -1.3202593246862646
lfemur 8.887146998913892 -2.3254171388015186 -26.562217254159307
ltibia 13.119811603594208
lfoot 21.47686481239062 -12.329466283003702
ltoes -20.493379392127665
rfemur -45.97080531298043 -2.962329920605001 24.857263386308222
rtibia 104.49345161166818
rfoot 9.845535132485516 -6.514975335324544
rtoes 7.369144143408473
lowerback nan -1.8737593366545853 -0.5467740900198135
upperback -0.9550117845477729 -0.830443113951602 0.6805788105970682
thorax -8.221535120508833 -0.8532931541049732 3.2147562410148702
lowerneck -19.424530280605474 -3.1465427637192085 -2.266934035248066
upperneck 7.112979083327365 -4.625246281699185 6.485479593500167
head 6.893150989417493 -1.7308454369463115 1.3411074610913367
lclavicle 2.3962457106281394e-15 4.684592313869637e-15
lhumerus -38.272764399895976 -6.012576762146283 83.42349884872537
lradius 133.56610585103257
lwrist 35.16646654714621
lhand -28.08223842565649 -4.552038178333961
lfingers nan
lthumb -1.1159889146196809 25.609936883433566
rclavicle 3.2809854389654126e-15 7.841340389353385e-15
rhumerus -66.72565122949314 5.156278159598908 -93.38142628606215
rradius 100.23705527240995
rwrist -22.985365080232093
rhand -17.726209330602902 nan
rfingers nan
rthumb 8.558270560795641 12.833675621466444
156
root 1.0171267509190738 18.27876958720131 47.476770291038875 3.544110558150711 -5.517892610242039 -1.47596343326439
lfemur 10.675342820581104 -1.5208652571580679 -26.686183204232037
ltibia 11.46206928737633
lfoot 26.12079497354133 -12.921795227315002
ltoes -16.534124922812495
rfemur -45.23448186524078 -1.8200264124232164 25.19311253051456
rtibia 99.6848627505639
rfoot 9.598836568169093 -5.525267149651656
rtoes 6.205129422438457
lowerback nan -1.5818204432476644 -0.5828873414944531
upperback -0.9549420980761081 -0.41925696366047727 0.7172986745328453
thorax -8.198213468840247 -0.6247858353079759 3.2096343987149236
lowerneck -19.26088374566264 -3.120500749457147 -2.30701763081258
upperneck 7.228550682006794 -4.602766618682995 6.36093251737036
head 6.905967286973687 -1.6884990663883495 1.33270722151908
lclavicle -6.464179821742789e-15 6.023991838539466e-15
lhumerus -38.93631043719469 -6.27285154944115 83.58157954260533
lradius 133.23696967005696
lwrist 34.402611318776266
lhand -27.29093779068465 -3.1019464286793426
lfingers nan
lthumb -0.34036894801036643 27.086078932256015
rclavicle -5.344734183928249e-15 9.373155761175345e-15
rhumerus -67.10392922110152 4.5368804192752235 -92.58514851848152
rradius 100.5036123928757
rwrist -22.616990108409617
rhand -17.806654713506035 nan
rfingers nan
rthumb 8.462226447117168 12.706037352066899
157
root 1.0412580075570188 18.30428659726234 47.47762956663165 3.5905234697153636 -4.878596412343141 -1.2322179726420848
lfemur 12.156857548680705 -2.059751410160498 -26.82649247631879
ltibia 9.781471656693292
lfoot 29.677192053389657 -14.493337645192431
ltoes -13.158281019322542
rfemur -44.57292661554914 -2.3500032394279002 25.142525127949266
rtibia 94.71232409174348
rfoot 8.914289996212872 -4.612639127172006
rtoes 5.810156904565723
lowerback nan -1.7650572490744327 -0.5819898620952006
upperback -1.0878875896879854 -0.6249305847646773 0.681094956414894
thorax -8.142495984943148 -0.7425333252717486 3.2776007909434064
lowerneck -19.6153113900489 -3.2424914699737695 -2.477316862451945
upperneck 8.012866363223958 -4.815576861668442 6.573546641848322
head 7.2284814655052 -1.7353672393514288 1.4025367487669562
lclavicle 3.56177052326238e-14 8.531370665035563e-15
lhumerus -39.52468983314216 -6.442304086296673 83.37100782949256
lradius 132.70918622742295
lwrist 34.81997442418509
lhand -26.3003495106364 -4.097218573698291
lfingers nan
lthumb 0.6127839292152 26.04833000203076
rclavicle 3.637738960654203e-14 1.2025185118809665e-14
rhumerus -67.65745361777228 4.027336352605365 -92.09240222825214
rradius 100.75523142868548
rwrist -21.167036756946285
rhand -18.557105038058385 nan
rfingers nan
rthumb 7.730222107330245 12.58995588089744
158
root 1.0888598440287671 18.311279784183917 47.79724579208269 3.2727120324153187 -4.354999019273841 -0.9379571277425294
lfemur 13.6589182941476 -2.7804467788343965 -27.063863826635227
ltibia 8.418272040069319
lfoot 32.478121608765676 -15.290617512736144
ltoes -10.955832404210401
rfemur -43.202604857645 -3.3094258994599888 25.083701672927422
rtibia 89.55220217345972
rfoot 8.151854183953821 -2.8947473430580635
rtoes 4.664985032295491
lowerback nan -1.943042611783595 -0.21981979488337977
upperback -1.0077838881873038 -0.7781259137674035 0.539410655752681
thorax -7.922939753568309 -0.8541610248540227 3.183367923015248
lowerneck -19.205657813621787 -3.088774113334884 -2.44460076594059
upperneck 7.850792409733591 -4.64797232614419 6.520245694046461
head 7.0864615409617295 -1.618778638438338 1.40342416730167
lclavicle 3.301506351005217e-14 -1.724988779101741e-15
lhumerus -39.98773139075112 -6.388313516155691 82.7083870512858
lradius 132.07586880952593
lwrist 36.83034646844874
lhand -21.760703446551375 -6.477698007898482
lfingers nan
lthumb 4.9625451167553685 23.540023735201444
rclavicle 3.4021054890480954e-14 2.07928668028709e-15
rhumerus -68.13400182605069 3.308248893631852 -91.53900843912145
rradius 101.60680534024517
rwrist -19.517868982539152
rhand -18.981083191558472 nan
rfingers nan
rthumb 7.321061903478443 12.115557323469595
159
root 1.0635551082743315 18.321242303805267 48.16742558106263 3.5849100062662185 -4.9695123354562325 -0.8856303862741153
lfemur 14.444542942537431 -2.5202050813335166 -27.016821993202985
ltibia 7.464637836684609
lfoot 34.767812136308336 -15.92152732524603
ltoes -7.581964826385833
rfemur -42.610841766723894 -2.9577046586372506 25.32584076498606
rtibia 84.31356763498552
rfoot 7.966358101538237 -1.2799123162930082
rtoes 2.8762931587490286
lowerback nan -1.7489895075939597 -0.4568934487944296
upperback -0.6211684870997631 -0.5618640789733913 0.4790454031897714
thorax -6.458270154663374 -0.7428216365243002 3.1695981720614332
lowerneck -19.863314341962923 -2.9673846220231477 -2.3279405524946424
upperneck 7.959284313666714 -4.501093503685483 6.2008483201696105
head 7.2093232884638825 -1.5383398732960212 1.3258710799968028
lclavicle -1.5944109814431094e-14 1.809569629859109e-14
lhumerus -40.05712291611081 -6.465562535202673 82.19099184629809
lradius 131.6417453696863
lwrist 38.75725229628732
lhand -18.4420746287433 -5.156487265284213
lfingers nan
lthumb 8.037936746072388 24.70623273133393
rclavicle -1.4609571560233542e-14 2.1377519473451175e-14
rhumerus -67.70986149664293 2.6912171218171412 -90.74587305493307
rradius 102.02597578391416
rwrist -18.969398765462987
rhand -18.642631222571133 nan
rfingers nan
rthumb 7.63912083081822 12.355380094538845
160
root 1.0950439531534606 18.342328627001017 47.53137122741707 4.054599585350386 -3.297045446817389 -1.009842000397505
lfemur 14.313571864134587 -4.096394967909511 -26.475295677598265
ltibia 7.826671589485272
lfoot 36.05870096876643 -16.44677070574663
ltoes -3.3481323188140166
rfemur -41.77522551846397 -4.183312509912886 25.8618125943343
rtibia 78.7400071475829
rfoot 8.080751931366448 -0.10677584770293524
rtoes 1.9754472896985429
lowerback nan -2.0858136078292415 0.10116097940335744
upperback -1.1762939466176037 -0.9153334705482565 0.5263948202985798
thorax -7.735139966106466 -0.8837263211337819 2.9768761644502884
lowerneck -18.431238916749408 -2.8811650190888884 -2.3308829833977143
upperneck 7.706305264740506 -4.36240019484762 5.90833282278464
head 6.8544469305351905 -1.4661826951647297 1.285448580205598
lclavicle -6.865361443884178e-14 1.3679757182209458e-14
lhumerus -41.43056746285972 -6.84747785364021 83.15155550579489
lradius 131.36285450948824
lwrist 37.91491260715877
lhand -20.865528071589605 0.32041448660350014
lfingers nan
lthumb 5.679502825759681 30.30763421510919
rclavicle -6.65538589520876e-14 1.6651164996464886e-14
rhumerus -68.49499310808156 2.092524918991428 -90.22484312748017
rradius 102.58716461550512
rwrist -18.489246507463047
rhand -18.29347284368763 nan
rfingers nan
rthumb 7.9600875654710865 12.534003434011543
161
root 1.073830886833595 18.366569871705465 47.617552033837924 4.111477973150501 -4.574857146627876 -0.6198296190821129
lfemur 14.797429280578527 -3.6259493842534787 -27.352573547795135
ltibia 8.526867268909292
lfoot 35.374699966259854 -15.543431598188299
ltoes -2.051502276237345
rfemur -40.72766773515576 -3.814006263752662 25.33099930252143
rtibia 72.98340464579482
rfoot 8.70168188172847 1.7298223553623284
rtoes 1.4955991683774315
lowerback nan -1.8123586652509442 -0.660506093289599
upperback -1.453852805937946 -0.6352573858629811 0.45017225925829185
thorax -7.844546707740406 -0.6937940059551103 3.129592007702747
lowerneck -17.925964241251773 -2.8230241697479146 -2.3698781274568463
upperneck 8.290763244376512 -4.247504293936509 5.660008563725588
head 6.922313698967374 -1.4066233246895035 1.2595820555703048
lclavicle 1.0871703265221087e-14 5.500314633521039e-15
lhumerus -43.056889857533406 -7.973251632593925 85.6027956233808
lradius 129.95423023110163
lwrist 31.803278161321092
lhand -29.79870039980495 2.350913437068776
lfingers nan
lthumb -2.8843409136052376 32.531331222970216
rclavicle 1.23960710137576e-14 8.113019838212806e-15
rhumerus -69.07690918397483 1.5229023595645117 -89.81441070186436
rradius 103.03177302052795
rwrist -17.676590443176767
rhand -18.448605627072283 nan
rfingers nan
rthumb 7.803767823195838 12.973026887079904
